<svg xmlns="http://www.w3.org/2000/svg" viewBox="0 0 19 19" width="19" height="19">
	<style>
		tspan { white-space:pre }
		.shp0 { fill: #bababa } 
	</style>
	<g id="Slider">
		<g id="iPhone Horizontal">
			<g id="Home Button">
				<path id="Square" fill-rule="evenodd" class="shp0" d="M17.51 4.88L17.51 13.7C17.51 15.75 15.84 17.42 13.79 17.42L5 17.42C2.95 17.42 1.28 15.75 1.28 13.7L1.28 4.88C1.28 2.82 2.95 1.16 5 1.16L13.79 1.16C15.84 1.16 17.51 2.82 17.51 4.88ZM12.86 2.87L5.94 2.87C4.33 2.87 3.02 4.18 3.02 5.8L3.02 12.75C3.02 14.36 4.33 15.67 5.94 15.67L12.86 15.67C14.48 15.67 15.79 14.36 15.79 12.75L15.79 5.8C15.79 4.18 14.48 2.87 12.86 2.87Z" />
			</g>
		</g>
	</g>
</svg>